<svg viewBox="0 0 24 24" fill="none" xmlns="http://www.w3.org/2000/svg">
<path fill-rule="evenodd" clip-rule="evenodd" d="M6.22794 6.22702C6.52083 5.93413 6.99571 5.93413 7.2886 6.22703L12.0009 10.9393L16.7132 6.22703C17.0061 5.93413 17.4809 5.93413 17.7738 6.22702C18.0667 6.51991 18.0667 6.99479 17.7738 7.28768L13.0616 12L17.7738 16.7123C18.0667 17.0052 18.0667 17.48 17.7738 17.7729C17.4809 18.0658 17.0061 18.0658 16.7132 17.7729L12.0009 13.0607L7.2886 17.7729C6.9957 18.0658 6.52083 18.0658 6.22794 17.7729C5.93505 17.48 5.93505 17.0052 6.22794 16.7123L10.9402 12L6.22794 7.28768C5.93505 6.99479 5.93505 6.51992 6.22794 6.22702Z" fill="white"/>
</svg>
