<svg viewBox="0 0 24 24" fill="none" xmlns="http://www.w3.org/2000/svg">
<path fill-rule="evenodd" clip-rule="evenodd" d="M16.3053 3.75C14.9936 3.75 13.7334 4.28909 12.8047 5.25231L12.8046 5.25245L12.5396 5.52714C12.3982 5.67365 12.2034 5.75641 11.9998 5.75642C11.7963 5.75643 11.6014 5.67369 11.4601 5.52719L11.1949 5.25234L11.1948 5.25229C9.26309 3.24988 6.12529 3.24987 4.19353 5.25229C2.26883 7.24738 2.26882 10.477 4.19352 12.4722C4.19353 12.4722 4.19353 12.4722 4.19353 12.4722L11.4886 20.034C11.7573 20.3126 12.2054 20.3231 12.4874 20.0572C14.1656 18.441 15.7606 16.7472 17.3677 15.0406C18.1734 14.185 18.9822 13.3261 19.806 12.4722L19.8061 12.4721C20.7293 11.5155 21.25 10.2177 21.25 8.86222C21.25 7.50674 20.7294 6.20909 19.8061 5.25239L19.8059 5.2522C18.8771 4.28903 17.617 3.75 16.3053 3.75ZM11.9999 3.9423C13.1757 2.85872 14.7069 2.25 16.3053 2.25C18.0313 2.25 19.679 2.95977 20.8855 4.21075C22.0832 5.45181 22.75 7.1248 22.75 8.86222C22.75 10.5997 22.0831 12.2727 20.8855 13.5137C20.0889 14.3394 19.2937 15.1838 18.4942 16.0327C16.8707 17.7564 15.2299 19.4986 13.5255 21.1399L13.5216 21.1437L13.5216 21.1437C12.6427 21.9778 11.2505 21.9477 10.409 21.0754L10.9488 20.5547L10.409 21.0754L3.11399 13.5136L3.11399 13.5136C0.628676 10.9374 0.62867 6.78707 3.11399 4.21085L3.65376 4.73157L3.11399 4.21085C5.54605 1.68984 9.46241 1.60032 11.9999 3.9423Z" fill="white"/>
</svg>
