<svg viewBox="0 0 24 24" fill="none" xmlns="http://www.w3.org/2000/svg">
<path fill-rule="evenodd" clip-rule="evenodd" d="M8.37596 8.58398C8.60573 8.23933 9.07138 8.1462 9.41602 8.37597L13.5 11.0986L17.584 8.37597C17.9286 8.1462 18.3943 8.23933 18.624 8.58398C18.8538 8.92862 18.7607 9.39428 18.416 9.62404L13.916 12.624C13.6641 12.792 13.3359 12.792 13.084 12.624L8.58397 9.62404C8.23933 9.39428 8.1462 8.92862 8.37596 8.58398Z" fill="white"/>
<path fill-rule="evenodd" clip-rule="evenodd" d="M2.25 13.5C2.25 13.0858 2.58579 12.75 3 12.75H5C5.41421 12.75 5.75 13.0858 5.75 13.5C5.75 13.9142 5.41421 14.25 5 14.25H3C2.58579 14.25 2.25 13.9142 2.25 13.5Z" fill="white"/>
<path fill-rule="evenodd" clip-rule="evenodd" d="M0.25 10.5C0.25 10.0858 0.585786 9.75 1 9.75H5C5.41421 9.75 5.75 10.0858 5.75 10.5C5.75 10.9142 5.41421 11.25 5 11.25H1C0.585786 11.25 0.25 10.9142 0.25 10.5Z" fill="white"/>
<path fill-rule="evenodd" clip-rule="evenodd" d="M7 5.75C6.30964 5.75 5.75 6.30964 5.75 7V7.5C5.75 7.91421 5.41421 8.25 5 8.25C4.58579 8.25 4.25 7.91421 4.25 7.5V7C4.25 5.48122 5.48122 4.25 7 4.25H20C21.5188 4.25 22.75 5.48122 22.75 7V17C22.75 18.5188 21.5188 19.75 20 19.75H7C5.48122 19.75 4.25 18.5188 4.25 17V16.5C4.25 16.0858 4.58579 15.75 5 15.75C5.41421 15.75 5.75 16.0858 5.75 16.5V17C5.75 17.6904 6.30964 18.25 7 18.25H20C20.6904 18.25 21.25 17.6904 21.25 17V7C21.25 6.30964 20.6904 5.75 20 5.75H7Z" fill="white"/>
</svg>
