<svg viewBox="0 0 24 24" fill="none" xmlns="http://www.w3.org/2000/svg">
<path fill-rule="evenodd" clip-rule="evenodd" d="M12 2.75C7.99593 2.75 4.75 5.99593 4.75 10C4.75 10.9073 5.17155 12.0709 5.90354 13.371C6.6242 14.651 7.59493 15.9758 8.58078 17.1823C9.56431 18.386 10.5499 19.4563 11.2906 20.2264C11.5656 20.5124 11.8063 20.7564 12 20.9499C12.1937 20.7564 12.4344 20.5124 12.7094 20.2264C13.4501 19.4563 14.4357 18.386 15.4192 17.1823C16.4051 15.9758 17.3758 14.651 18.0965 13.371C18.8284 12.0709 19.25 10.9073 19.25 10C19.25 5.99593 16.0041 2.75 12 2.75ZM12 22C11.4841 22.5444 11.484 22.5443 11.4838 22.5441L11.477 22.5377L11.4586 22.5201L11.389 22.4532C11.3286 22.3948 11.2408 22.3093 11.1294 22.1993C10.9066 21.9794 10.5895 21.6614 10.2094 21.2662C9.45014 20.4767 8.43569 19.3754 7.41922 18.1314C6.40507 16.8902 5.3758 15.4911 4.59646 14.1069C3.82845 12.7428 3.25 11.3018 3.25 10C3.25 5.16751 7.16751 1.25 12 1.25C16.8325 1.25 20.75 5.16751 20.75 10C20.75 11.3018 20.1716 12.7428 19.4035 14.1069C18.6242 15.4911 17.5949 16.8902 16.5808 18.1314C15.5643 19.3754 14.5499 20.4767 13.7906 21.2662C13.4105 21.6614 13.0934 21.9794 12.8706 22.1993C12.7592 22.3093 12.6714 22.3948 12.611 22.4532L12.5414 22.5201L12.523 22.5377L12.518 22.5424L12.5166 22.5437C12.5164 22.5439 12.5159 22.5444 12 22ZM12 22L12.5166 22.5437L12 23.0333L11.4838 22.5441L12 22Z" fill="white"/>
<path d="M12 11C12.5523 11 13 10.5523 13 10C13 9.44772 12.5523 9 12 9C11.4477 9 11 9.44772 11 10C11 10.5523 11.4477 11 12 11Z" fill="white"/>
<path fill-rule="evenodd" clip-rule="evenodd" d="M10.25 10C10.25 9.03352 11.0335 8.25 12 8.25C12.9665 8.25 13.75 9.03352 13.75 10C13.75 10.9665 12.9665 11.75 12 11.75C11.0335 11.75 10.25 10.9665 10.25 10ZM12 9.75C11.8619 9.75 11.75 9.86192 11.75 10C11.75 10.1381 11.8619 10.25 12 10.25C12.1381 10.25 12.25 10.1381 12.25 10C12.25 9.86192 12.1381 9.75 12 9.75Z" fill="white"/>
</svg>
