<svg viewBox="0 0 24 24" fill="none" xmlns="http://www.w3.org/2000/svg">
<path fill-rule="evenodd" clip-rule="evenodd" d="M8.76283 2.28849C8.91678 2.23717 9.08322 2.23717 9.23717 2.28849L15 4.20943L19.9731 2.55174C19.9731 2.55174 19.9731 2.55174 19.9731 2.55174C20.8473 2.26033 21.75 2.91106 21.75 3.83246V18.5675C21.75 19.1487 21.3781 19.6645 20.827 19.8483L20.8269 19.8483L15.2372 21.7115C15.0832 21.7628 14.9168 21.7628 14.7628 21.7115L9 19.7906L4.02692 21.4483L4.0269 21.4483C3.15265 21.7397 2.25 21.0889 2.25 20.1675V5.43246C2.25 4.8514 2.62181 4.33549 3.17309 4.15174C3.17309 4.15174 3.1731 4.15173 3.17311 4.15173L8.76283 2.28849ZM9.75 18.4594L14.25 19.9594V5.54057L9.75 4.04057V18.4594ZM8.25 4.04057V18.4594L3.75 19.9595V5.54057L8.25 4.04057ZM15.75 5.54057V19.9594L20.25 18.4595V4.04059L15.75 5.54057Z" fill="white"/>
</svg>
