<svg viewBox="0 0 24 24" fill="none" xmlns="http://www.w3.org/2000/svg">
<path fill-rule="evenodd" clip-rule="evenodd" d="M3.2749 5.77724C3.06458 4.37425 4.18292 3.25 5.50888 3.25H8.53931C8.85236 3.25 9.13248 3.44444 9.24196 3.73773L10.4178 6.88793C10.4653 7.01523 10.4774 7.15304 10.4527 7.28665L9.87086 10.4311C10.5754 12.0767 11.7285 13.1943 13.6486 14.2033L16.7201 13.6037C16.8583 13.5767 17.0012 13.5891 17.1326 13.6396L20.2688 14.8437C20.5587 14.955 20.75 15.2334 20.75 15.5439V18.4616C20.75 19.8584 19.5223 21.0177 18.0635 20.6978C15.5886 20.1553 10.9838 18.773 7.75288 15.5177L8.27288 15.0016L7.75288 15.5177C4.65488 12.3962 3.622 8.0926 3.2749 5.77724L3.2749 5.77724ZM5.50888 4.75C5.01291 4.75 4.69654 5.14274 4.75832 5.55486C5.09053 7.7709 6.06061 11.6832 8.81753 14.461L8.28521 14.9894L8.81753 14.461C11.7352 17.4008 15.9859 18.7067 18.3848 19.2327L18.3848 19.2327C18.8082 19.3255 19.25 19.0054 19.25 18.4616V16.0593L16.7961 15.1171L13.6804 15.7255C13.5167 15.7574 13.347 15.7339 13.1982 15.6586C10.8375 14.4648 9.28976 13.0401 8.39604 10.7889C8.34397 10.6578 8.32996 10.5145 8.35564 10.3758L8.93991 7.21793L8.01872 4.75H5.50888Z" fill="white"/>
</svg>
