<svg viewBox="0 0 24 24" fill="none" xmlns="http://www.w3.org/2000/svg">
<path fill-rule="evenodd" clip-rule="evenodd" d="M1.25 12C1.25 6.06294 6.06294 1.25 12 1.25C17.937 1.25 22.75 6.06293 22.75 12C22.75 17.937 17.937 22.75 12 22.75C6.06293 22.75 1.25 17.937 1.25 12ZM12 2.75C6.89136 2.75 2.75 6.89136 2.75 12C2.75 17.1086 6.89137 21.25 12 21.25C17.1086 21.25 21.25 17.1086 21.25 12C21.25 6.89137 17.1086 2.75 12 2.75Z" fill="white"/>
<path fill-rule="evenodd" clip-rule="evenodd" d="M4.86091 18.8088L4.86045 18.8094L4.85966 18.8104L4.85868 18.8117C4.85835 18.8121 4.85839 18.812 4.8588 18.8115C4.60278 19.1347 4.13349 19.1907 3.80852 18.9361C3.48243 18.6807 3.42514 18.2093 3.68057 17.8832L4.271 18.3457C3.68057 17.8832 3.68085 17.8829 3.68113 17.8825L3.68175 17.8817L3.68315 17.8799L3.68659 17.8756L3.69604 17.8639C3.70347 17.8548 3.71321 17.843 3.72528 17.8288C3.74941 17.8003 3.78287 17.762 3.82594 17.7152C3.91207 17.6218 4.03672 17.4945 4.20207 17.3449C4.53278 17.0457 5.02672 16.657 5.70085 16.2717C7.0539 15.4984 9.11378 14.75 12 14.75C14.8862 14.75 16.9461 15.4984 18.2992 16.2717C18.9733 16.657 19.4673 17.0457 19.798 17.3449C19.9634 17.4944 20.088 17.6217 20.1741 17.7152C20.2172 17.762 20.2507 17.8003 20.2748 17.8288C20.2869 17.843 20.2966 17.8548 20.3041 17.8639L20.3135 17.8756L20.3169 17.8799L20.3183 17.8817L20.319 17.8825C20.3192 17.8828 20.3195 17.8832 19.7543 18.326L20.3195 17.8832C20.5749 18.2093 20.5177 18.6807 20.1916 18.9361C19.8666 19.1907 19.3973 19.1347 19.1413 18.8115C19.1404 18.8104 19.1395 18.8093 19.1387 18.8082L19.7291 18.3457C19.1387 18.8082 19.1389 18.8085 19.1392 18.8089L19.1397 18.8094L19.1404 18.8104L19.141 18.8112L19.1306 18.7987C19.1194 18.7855 19.0996 18.7627 19.071 18.7316C19.0137 18.6695 18.9213 18.5745 18.7917 18.4573C18.5326 18.2229 18.1255 17.9001 17.5549 17.574C16.4184 16.9245 14.6138 16.25 12 16.25C9.38623 16.25 7.58162 16.9245 6.44516 17.574C5.87454 17.9001 5.46747 18.2228 5.20837 18.4572C5.07881 18.5744 4.98636 18.6695 4.9291 18.7316C4.90048 18.7627 4.88068 18.7855 4.86947 18.7987L4.85909 18.8112" fill="white"/>
<path fill-rule="evenodd" clip-rule="evenodd" d="M8.25 9C8.25 6.92894 9.92888 5.25 12 5.25C14.0711 5.25 15.75 6.92894 15.75 9C15.75 11.0711 14.0711 12.75 12 12.75C9.92889 12.75 8.25 11.0711 8.25 9ZM12 6.75C10.7573 6.75 9.75 7.75736 9.75 9C9.75 10.2427 10.7573 11.25 12 11.25C13.2427 11.25 14.25 10.2427 14.25 9C14.25 7.75736 13.2427 6.75 12 6.75Z" fill="white"/>
</svg>
