<svg viewBox="0 0 24 24" fill="none" xmlns="http://www.w3.org/2000/svg">
<path fill-rule="evenodd" clip-rule="evenodd" d="M2.46428 3.47511C2.67964 3.25531 3.00742 3.18936 3.29104 3.30877L22.291 11.3088C22.5692 11.4259 22.75 11.6982 22.75 12C22.75 12.3018 22.5692 12.5741 22.291 12.6912L3.29104 20.6912C3.00742 20.8106 2.67964 20.7447 2.46428 20.5249C2.24891 20.3051 2.18967 19.976 2.31486 19.6949L5.74149 12L2.31486 4.3051C2.18967 4.02398 2.24891 3.69492 2.46428 3.47511ZM4.45647 5.42702L7.24763 11.6949C7.33412 11.8891 7.33412 12.1109 7.24763 12.3051L4.45647 18.573L20.0673 12L4.45647 5.42702Z" fill="white"/>
<path fill-rule="evenodd" clip-rule="evenodd" d="M5.75 12C5.75 11.5858 6.08579 11.25 6.5 11.25H22C22.4142 11.25 22.75 11.5858 22.75 12C22.75 12.4142 22.4142 12.75 22 12.75H6.5C6.08579 12.75 5.75 12.4142 5.75 12Z" fill="white"/>
</svg>
