<svg viewBox="0 0 24 24" fill="none" xmlns="http://www.w3.org/2000/svg">
<path fill-rule="evenodd" clip-rule="evenodd" d="M11.9143 3.27202C11.8947 3.28355 11.8742 3.30192 11.8567 3.33722L11.8567 3.33726L9.25914 8.56947C9.14966 8.79001 8.9389 8.94276 8.69523 8.97817L2.88638 9.82237L2.88638 9.82237C2.75125 9.84201 2.70973 9.99813 2.79748 10.0831L2.79751 10.0831L7.00001 14.153C7.17814 14.3255 7.25949 14.5749 7.21734 14.8193L6.22553 20.5689C6.21892 20.6072 6.22468 20.6329 6.23307 20.6523C6.24273 20.6746 6.26063 20.6982 6.28726 20.7174C6.31388 20.7366 6.34298 20.7469 6.36935 20.7494C6.39269 20.7516 6.42144 20.7486 6.45794 20.7295L6.80547 21.3941L6.45795 20.7295L11.6525 18.0134C11.8702 17.8995 12.1298 17.8995 12.3475 18.0134L17.542 20.7295C17.5785 20.7486 17.6073 20.7516 17.6306 20.7494C17.657 20.7469 17.6861 20.7366 17.7127 20.7174C17.7393 20.6982 17.7572 20.6746 17.7669 20.6523C17.7753 20.633 17.781 20.6073 17.7744 20.5689L17.7744 20.5689L16.7826 14.8193C16.7405 14.5749 16.8218 14.3255 16.9999 14.153L21.2025 10.0831C21.2903 9.99812 21.2487 9.842 21.1136 9.82237L15.3047 8.97817C15.0611 8.94276 14.8503 8.79001 14.7408 8.56947L12.1433 3.33726L12.1433 3.33722C12.1258 3.30192 12.1053 3.28355 12.0857 3.27202C12.0634 3.25889 12.0337 3.25 12 3.25C11.9663 3.25 11.9366 3.25889 11.9143 3.27202ZM13.4869 2.6703C12.8778 1.44325 11.1222 1.44323 10.5131 2.67026C10.5131 2.67027 10.5131 2.67029 10.5131 2.6703L8.09043 7.55031L2.67066 8.33797C1.31521 8.53495 0.76262 10.2006 1.75399 11.1607C1.754 11.1607 1.75401 11.1607 1.75402 11.1607L5.6718 14.9549L4.74737 20.3139L5.48645 20.4414L4.74736 20.3139C4.51274 21.6742 5.94444 22.6907 7.15299 22.0587L12 19.5243L16.847 22.0587L17.1945 21.3941L16.847 22.0587C18.0555 22.6906 19.4873 21.6742 19.2526 20.3139L18.3282 14.9549L22.2461 11.1607L22.2461 11.1607C23.2373 10.2007 22.6849 8.53496 21.3294 8.33797L15.9095 7.55031L13.4869 2.6703Z" fill="white"/>
</svg>
